# xmcd CD database file
#
# Track frame offsets:
#	150
#	10546
#	23170
#	43410
#	60762
#	74692
#	87572
#	105586
#	119128
#	132500
#	146378
#	156976
#	172746
#	186950
#	202811
#	216774
#	226703
#	239374
#	256745
#	275888
#	290227
#	304314
#	317259
#
# Disc length: 4427 seconds
#
# Revision: 1
# Processed by: cddbd v1.5.2PL0 Copyright (c) Steve Scherf et al.
# Submitted via: CDex 1.51
#
DISCID=4f114917
DTITLE=Various Artist - Sounds of Bourbon Street
DYEAR=2007
DGENRE=Jazz
TTITLE0=When The Saints Go Marching In
TTITLE1=Alexander's Rag Time Band
TTITLE2=Bourbon Street Parade
TTITLE3=Entertainer, The
TTITLE4=Bill Bailey, Won't You Pease Come Home
TTITLE5=Down By The Riverside
TTITLE6=Pine Apple Rag
TTITLE7=For Me And My Girl
TTITLE8=Beale Street
TTITLE9=12th Street Rag
TTITLE10=Tiger Rag
TTITLE11=Ragtime Dance, The
TTITLE12=Maple Leaf Rag
TTITLE13=Tippi Tonga
TTITLE14=Zydeco Tango
TTITLE15=Alons La Bouche
TTITLE16=Café DuMonde
TTITLE17=Delta Mumbo Gumbo
TTITLE18=James Street Processional
TTITLE19=French Quarter Stomp
TTITLE20=La Louisiana Boogie
TTITLE21=Lola's Boogaloo
TTITLE22=Mardi Gras Zydeco
EXTD=YEAR: 2007
EXTT0=
EXTT1=
EXTT2=
EXTT3=
EXTT4=
EXTT5=
EXTT6=
EXTT7=
EXTT8=
EXTT9=
EXTT10=
EXTT11=
EXTT12=
EXTT13=
EXTT14=
EXTT15=
EXTT16=
EXTT17=
EXTT18=
EXTT19=
EXTT20=
EXTT21=
EXTT22=
PLAYORDER=
